<?xml version="1.0" encoding="UTF-8"?>
<svg xmlns="http://www.w3.org/2000/svg" xmlns:xlink="http://www.w3.org/1999/xlink" width="64px" height="64px" viewBox="0 0 64 64" version="1.1">
<g id="surface1">
<path style=" stroke:none;fill-rule:nonzero;fill:rgb(0%,0%,0%);fill-opacity:1;" d="M 21.566406 23.742188 C 21.601562 23.773438 21.640625 23.800781 21.675781 23.832031 C 21.789062 23.921875 21.898438 24.015625 22.011719 24.109375 C 22.0625 24.148438 22.0625 24.148438 22.113281 24.191406 C 22.394531 24.429688 22.667969 24.671875 22.785156 25.023438 C 22.710938 25.136719 22.710938 25.136719 22.597656 25.261719 C 22.554688 25.304688 22.511719 25.351562 22.46875 25.398438 C 22.425781 25.441406 22.382812 25.488281 22.335938 25.535156 C 22.292969 25.578125 22.253906 25.621094 22.210938 25.667969 C 22.007812 25.875 21.800781 26.070312 21.582031 26.257812 C 21.316406 26.492188 21.058594 26.730469 20.800781 26.976562 C 20.703125 27.066406 20.609375 27.15625 20.515625 27.246094 C 20.441406 27.3125 20.441406 27.3125 20.367188 27.382812 C 20.136719 27.601562 19.90625 27.820312 19.671875 28.039062 C 19.632812 28.078125 19.589844 28.117188 19.546875 28.15625 C 19.355469 28.339844 19.15625 28.519531 18.957031 28.699219 C 18.921875 28.730469 18.886719 28.761719 18.851562 28.792969 C 18.753906 28.863281 18.753906 28.863281 18.566406 28.886719 C 18.367188 28.800781 18.269531 28.714844 18.113281 28.566406 C 17.34375 27.84375 16.414062 27.667969 15.394531 27.6875 C 14.488281 27.730469 13.65625 28.199219 13.042969 28.855469 C 12.351562 29.691406 12.164062 30.683594 12.222656 31.742188 C 12.265625 32.007812 12.332031 32.257812 12.414062 32.511719 C 12.433594 32.566406 12.453125 32.625 12.46875 32.679688 C 12.800781 33.601562 13.519531 34.179688 14.371094 34.59375 C 15.257812 34.96875 16.214844 34.960938 17.109375 34.609375 C 17.535156 34.414062 17.910156 34.171875 18.265625 33.867188 C 18.433594 33.726562 18.433594 33.726562 18.625 33.664062 C 19.03125 33.894531 19.359375 34.265625 19.6875 34.597656 C 19.859375 34.769531 20.042969 34.929688 20.226562 35.089844 C 20.402344 35.242188 20.558594 35.40625 20.71875 35.570312 C 20.84375 35.691406 20.96875 35.804688 21.101562 35.917969 C 21.386719 36.167969 21.660156 36.421875 21.9375 36.679688 C 21.984375 36.722656 22.03125 36.769531 22.078125 36.8125 C 22.589844 37.292969 22.589844 37.292969 22.71875 37.503906 C 22.714844 37.757812 22.628906 37.882812 22.453125 38.054688 C 21.144531 39.292969 19.601562 40.136719 17.855469 40.574219 C 17.8125 40.585938 17.769531 40.597656 17.726562 40.609375 C 15.476562 41.195312 12.917969 40.652344 10.941406 39.5 C 9.980469 38.917969 9.105469 38.171875 8.382812 37.3125 C 8.332031 37.25 8.277344 37.1875 8.226562 37.125 C 6.871094 35.46875 6.320312 33.417969 6.320312 31.304688 C 6.320312 31.257812 6.320312 31.210938 6.320312 31.160156 C 6.320312 30.457031 6.359375 29.804688 6.527344 29.121094 C 6.546875 29.03125 6.5625 28.941406 6.582031 28.851562 C 6.878906 27.402344 7.578125 25.960938 8.660156 24.9375 C 8.773438 24.824219 8.875 24.707031 8.976562 24.585938 C 9.257812 24.261719 9.582031 24.003906 9.921875 23.742188 C 9.953125 23.71875 9.988281 23.691406 10.023438 23.664062 C 13.351562 21.117188 18.289062 21.027344 21.566406 23.742188 Z M 21.566406 23.742188 "/>
<path style=" stroke:none;fill-rule:nonzero;fill:rgb(0%,0%,0%);fill-opacity:1;" d="M 53.828125 27.449219 C 55.074219 28.453125 55.867188 29.726562 56.425781 31.210938 C 56.445312 31.273438 56.46875 31.332031 56.492188 31.394531 C 56.523438 31.476562 56.523438 31.476562 56.554688 31.566406 C 56.582031 31.640625 56.582031 31.640625 56.609375 31.714844 C 56.648438 31.910156 56.617188 32.0625 56.574219 32.257812 C 56.210938 32.386719 55.847656 32.519531 55.484375 32.648438 C 55.425781 32.667969 55.367188 32.6875 55.308594 32.710938 C 54.492188 33.003906 53.675781 33.289062 52.859375 33.574219 C 52.816406 33.589844 52.769531 33.605469 52.726562 33.621094 C 52.285156 33.777344 51.839844 33.929688 51.398438 34.082031 C 50.429688 34.417969 49.46875 34.761719 48.511719 35.136719 C 48.601562 35.1875 48.691406 35.242188 48.78125 35.292969 C 48.855469 35.335938 48.855469 35.335938 48.929688 35.378906 C 49.480469 35.644531 50.058594 35.53125 50.613281 35.34375 C 51.148438 35.128906 51.613281 34.78125 51.859375 34.253906 C 51.882812 34.183594 51.882812 34.183594 51.902344 34.113281 C 51.925781 34.070312 51.945312 34.027344 51.96875 33.984375 C 52.429688 33.832031 52.828125 34.039062 53.265625 34.203125 C 53.347656 34.234375 53.429688 34.261719 53.511719 34.292969 C 53.683594 34.355469 53.855469 34.417969 54.023438 34.480469 C 54.246094 34.5625 54.464844 34.644531 54.683594 34.722656 C 54.894531 34.800781 55.101562 34.878906 55.3125 34.957031 C 55.390625 34.984375 55.46875 35.011719 55.550781 35.042969 C 55.625 35.070312 55.699219 35.097656 55.773438 35.125 C 55.867188 35.160156 55.867188 35.160156 55.96875 35.195312 C 56.128906 35.265625 56.128906 35.265625 56.320312 35.390625 C 56.300781 36.488281 55.257812 37.582031 54.507812 38.316406 C 54.21875 38.59375 53.914062 38.828125 53.566406 39.039062 C 53.5 39.082031 53.4375 39.125 53.367188 39.167969 C 51.699219 40.195312 49.5625 40.53125 47.660156 40.082031 C 45.808594 39.601562 44.359375 38.4375 43.359375 36.820312 C 42.441406 35.257812 42.105469 33.242188 42.492188 31.476562 C 42.988281 29.65625 44.125 28.144531 45.761719 27.199219 C 46.390625 26.84375 47.042969 26.554688 47.742188 26.367188 C 47.789062 26.355469 47.835938 26.34375 47.886719 26.328125 C 49.957031 25.796875 52.125 26.121094 53.828125 27.449219 Z M 47.808594 31.167969 C 47.589844 31.425781 47.4375 31.667969 47.359375 32 C 47.414062 31.980469 47.464844 31.964844 47.519531 31.945312 C 49.359375 31.324219 49.359375 31.324219 50.179688 31.09375 C 50.308594 31.058594 50.433594 31.019531 50.558594 30.976562 C 50.558594 30.933594 50.558594 30.890625 50.558594 30.847656 C 49.664062 30.464844 48.574219 30.503906 47.808594 31.167969 Z M 47.808594 31.167969 "/>
<path style=" stroke:none;fill-rule:nonzero;fill:rgb(0%,0%,0%);fill-opacity:1;" d="M 30.351562 26.472656 C 30.398438 26.472656 30.445312 26.46875 30.492188 26.46875 C 30.644531 26.46875 30.800781 26.46875 30.953125 26.46875 C 31.058594 26.46875 31.164062 26.46875 31.269531 26.46875 C 31.496094 26.46875 31.71875 26.46875 31.941406 26.472656 C 32.226562 26.472656 32.511719 26.472656 32.796875 26.46875 C 33.015625 26.46875 33.238281 26.46875 33.457031 26.46875 C 33.5625 26.46875 33.667969 26.46875 33.773438 26.46875 C 33.921875 26.46875 34.066406 26.46875 34.214844 26.472656 C 34.339844 26.472656 34.339844 26.472656 34.46875 26.472656 C 34.707031 26.5 34.820312 26.542969 35.007812 26.6875 C 35.046875 26.835938 35.046875 26.835938 35.046875 27.015625 C 35.046875 27.082031 35.050781 27.148438 35.050781 27.21875 C 35.050781 27.292969 35.046875 27.367188 35.046875 27.441406 C 35.046875 27.519531 35.046875 27.597656 35.046875 27.679688 C 35.046875 27.847656 35.046875 28.015625 35.046875 28.1875 C 35.046875 28.453125 35.046875 28.722656 35.046875 28.992188 C 35.050781 29.464844 35.050781 29.9375 35.046875 30.410156 C 35.046875 31.121094 35.046875 31.832031 35.050781 32.542969 C 35.050781 32.808594 35.050781 33.074219 35.050781 33.339844 C 35.046875 33.546875 35.050781 33.75 35.050781 33.957031 C 35.046875 34.03125 35.046875 34.101562 35.046875 34.179688 C 35.050781 34.585938 35.082031 34.894531 35.265625 35.265625 C 35.53125 35.476562 35.761719 35.472656 36.085938 35.445312 C 36.304688 35.363281 36.359375 35.273438 36.480469 35.070312 C 36.519531 34.808594 36.515625 34.546875 36.511719 34.28125 C 36.511719 34.160156 36.511719 34.160156 36.515625 34.039062 C 36.515625 33.863281 36.515625 33.691406 36.515625 33.515625 C 36.515625 33.242188 36.515625 32.964844 36.515625 32.691406 C 36.519531 32.257812 36.519531 31.820312 36.519531 31.386719 C 36.519531 30.605469 36.523438 29.828125 36.523438 29.046875 C 36.527344 28.773438 36.527344 28.5 36.527344 28.226562 C 36.527344 28.019531 36.527344 27.808594 36.527344 27.597656 C 36.527344 27.523438 36.527344 27.445312 36.527344 27.367188 C 36.527344 27.300781 36.527344 27.230469 36.527344 27.15625 C 36.527344 27.066406 36.527344 27.066406 36.527344 26.976562 C 36.546875 26.804688 36.574219 26.703125 36.671875 26.558594 C 36.898438 26.484375 37.082031 26.488281 37.324219 26.488281 C 37.390625 26.488281 37.390625 26.488281 37.464844 26.484375 C 37.617188 26.484375 37.769531 26.484375 37.921875 26.484375 C 38.03125 26.484375 38.136719 26.484375 38.242188 26.484375 C 38.46875 26.484375 38.691406 26.484375 38.914062 26.484375 C 39.203125 26.484375 39.488281 26.484375 39.777344 26.480469 C 39.996094 26.480469 40.214844 26.480469 40.4375 26.480469 C 40.542969 26.480469 40.648438 26.480469 40.753906 26.480469 C 40.902344 26.480469 41.050781 26.480469 41.199219 26.480469 C 41.28125 26.480469 41.367188 26.480469 41.453125 26.480469 C 41.648438 26.496094 41.761719 26.507812 41.921875 26.625 C 41.984375 26.816406 41.992188 26.945312 41.992188 27.144531 C 41.992188 27.246094 41.992188 27.246094 41.992188 27.351562 C 41.992188 27.425781 41.992188 27.5 41.992188 27.578125 C 41.992188 27.65625 41.992188 27.734375 41.992188 27.816406 C 41.996094 28.03125 41.996094 28.246094 41.996094 28.460938 C 41.996094 28.597656 41.996094 28.734375 41.996094 28.867188 C 41.996094 29.34375 41.996094 29.816406 41.996094 30.292969 C 41.996094 30.730469 41.996094 31.167969 41.996094 31.609375 C 42 31.988281 42 32.367188 42 32.746094 C 42 32.96875 42 33.195312 42 33.421875 C 42.003906 35.367188 42.007812 37.203125 40.5625 38.675781 C 39.738281 39.464844 38.667969 39.882812 37.566406 40.128906 C 37.460938 40.152344 37.460938 40.152344 37.355469 40.175781 C 35.429688 40.519531 33.195312 40.222656 31.554688 39.101562 C 31.398438 38.980469 31.25 38.855469 31.105469 38.71875 C 31.058594 38.683594 31.015625 38.644531 30.96875 38.605469 C 30.09375 37.8125 29.6875 36.523438 29.621094 35.371094 C 29.613281 35.144531 29.613281 34.914062 29.613281 34.683594 C 29.613281 34.597656 29.613281 34.507812 29.613281 34.421875 C 29.609375 34.1875 29.609375 33.949219 29.609375 33.714844 C 29.609375 33.570312 29.609375 33.421875 29.609375 33.273438 C 29.609375 32.761719 29.609375 32.25 29.609375 31.734375 C 29.609375 31.257812 29.605469 30.78125 29.605469 30.300781 C 29.601562 29.890625 29.601562 29.480469 29.601562 29.066406 C 29.601562 28.824219 29.601562 28.578125 29.601562 28.332031 C 29.601562 28.101562 29.601562 27.871094 29.601562 27.640625 C 29.601562 27.515625 29.601562 27.394531 29.597656 27.269531 C 29.597656 27.15625 29.597656 27.15625 29.601562 27.042969 C 29.601562 26.980469 29.601562 26.914062 29.601562 26.847656 C 29.632812 26.6875 29.632812 26.6875 29.75 26.570312 C 29.953125 26.460938 30.121094 26.472656 30.351562 26.472656 Z M 30.351562 26.472656 "/>
<path style=" stroke:none;fill-rule:nonzero;fill:rgb(0%,0%,0%);fill-opacity:1;" d="M 28.671875 20.863281 C 28.808594 20.96875 28.859375 21.023438 28.886719 21.195312 C 28.886719 21.25 28.886719 21.304688 28.886719 21.363281 C 28.890625 21.425781 28.890625 21.488281 28.890625 21.554688 C 28.890625 21.625 28.890625 21.691406 28.890625 21.765625 C 28.890625 21.839844 28.890625 21.914062 28.890625 21.988281 C 28.890625 22.195312 28.890625 22.398438 28.890625 22.605469 C 28.890625 22.828125 28.890625 23.050781 28.890625 23.269531 C 28.890625 23.703125 28.890625 24.140625 28.890625 24.574219 C 28.890625 24.925781 28.890625 25.277344 28.890625 25.632812 C 28.890625 25.683594 28.890625 25.730469 28.890625 25.785156 C 28.890625 25.886719 28.890625 25.988281 28.894531 26.089844 C 28.894531 27.046875 28.894531 28.003906 28.890625 28.957031 C 28.890625 29.832031 28.894531 30.707031 28.894531 31.585938 C 28.894531 32.484375 28.894531 33.378906 28.894531 34.277344 C 28.894531 34.785156 28.894531 35.289062 28.898438 35.792969 C 28.898438 36.222656 28.898438 36.652344 28.898438 37.082031 C 28.894531 37.300781 28.894531 37.519531 28.898438 37.738281 C 28.898438 37.976562 28.898438 38.214844 28.894531 38.449219 C 28.898438 38.554688 28.898438 38.554688 28.898438 38.660156 C 28.894531 39.128906 28.894531 39.128906 28.742188 39.335938 C 28.605469 39.425781 28.484375 39.488281 28.328125 39.542969 C 28.273438 39.5625 28.21875 39.582031 28.160156 39.601562 C 28.101562 39.621094 28.042969 39.640625 27.980469 39.664062 C 27.917969 39.683594 27.855469 39.707031 27.792969 39.730469 C 27.585938 39.800781 27.382812 39.871094 27.179688 39.941406 C 27.039062 39.988281 26.902344 40.039062 26.761719 40.085938 C 26.550781 40.160156 26.339844 40.230469 26.132812 40.304688 C 25.722656 40.445312 25.3125 40.589844 24.90625 40.738281 C 24.8125 40.773438 24.722656 40.804688 24.628906 40.839844 C 24.503906 40.886719 24.378906 40.929688 24.253906 40.976562 C 24.140625 41.019531 24.027344 41.058594 23.914062 41.101562 C 23.855469 41.121094 23.792969 41.144531 23.730469 41.167969 C 23.53125 41.222656 23.371094 41.234375 23.167969 41.214844 C 23.007812 41.054688 23.023438 41.007812 23.023438 40.789062 C 23.023438 40.722656 23.023438 40.660156 23.023438 40.59375 C 23.023438 40.523438 23.023438 40.453125 23.023438 40.382812 C 23.023438 40.308594 23.023438 40.234375 23.019531 40.15625 C 23.019531 39.949219 23.019531 39.742188 23.019531 39.535156 C 23.019531 39.3125 23.019531 39.085938 23.019531 38.863281 C 23.015625 38.375 23.015625 37.886719 23.015625 37.398438 C 23.015625 37.09375 23.015625 36.789062 23.015625 36.484375 C 23.015625 35.640625 23.011719 34.796875 23.011719 33.953125 C 23.011719 33.898438 23.011719 33.84375 23.011719 33.789062 C 23.011719 33.679688 23.011719 33.570312 23.011719 33.460938 C 23.011719 33.40625 23.011719 33.351562 23.011719 33.296875 C 23.011719 33.242188 23.011719 33.1875 23.011719 33.132812 C 23.011719 32.25 23.011719 31.367188 23.007812 30.484375 C 23.007812 29.578125 23.003906 28.671875 23.003906 27.769531 C 23.003906 27.257812 23.003906 26.75 23.003906 26.242188 C 23 25.808594 23 25.375 23 24.945312 C 23 24.722656 23 24.5 23 24.28125 C 23 24.042969 23 23.800781 23 23.5625 C 23 23.492188 23 23.421875 23 23.347656 C 23 23.175781 23.003906 23.015625 23.039062 22.847656 C 23.191406 22.710938 23.191406 22.710938 23.359375 22.65625 C 23.414062 22.632812 23.46875 22.609375 23.523438 22.585938 C 23.582031 22.566406 23.636719 22.546875 23.695312 22.523438 C 23.761719 22.5 23.828125 22.476562 23.898438 22.453125 C 23.96875 22.425781 24.039062 22.402344 24.113281 22.375 C 24.1875 22.347656 24.261719 22.320312 24.335938 22.292969 C 24.535156 22.222656 24.734375 22.152344 24.933594 22.078125 C 25.207031 21.980469 25.480469 21.882812 25.753906 21.78125 C 25.90625 21.726562 26.058594 21.671875 26.214844 21.617188 C 26.574219 21.488281 26.933594 21.355469 27.292969 21.21875 C 27.359375 21.195312 27.421875 21.171875 27.488281 21.148438 C 27.609375 21.101562 27.726562 21.058594 27.847656 21.011719 C 28.371094 20.816406 28.371094 20.816406 28.671875 20.863281 Z M 28.671875 20.863281 "/>
<path style=" stroke:none;fill-rule:nonzero;fill:rgb(3.529412%,21.176471%,25.098041%);fill-opacity:1;" d="M 21.566406 23.742188 C 21.601562 23.773438 21.640625 23.800781 21.675781 23.832031 C 21.789062 23.921875 21.898438 24.015625 22.011719 24.109375 C 22.0625 24.148438 22.0625 24.148438 22.113281 24.191406 C 22.394531 24.429688 22.667969 24.671875 22.785156 25.023438 C 22.710938 25.136719 22.710938 25.136719 22.597656 25.261719 C 22.554688 25.304688 22.511719 25.351562 22.46875 25.398438 C 22.425781 25.441406 22.382812 25.488281 22.335938 25.535156 C 22.292969 25.578125 22.253906 25.621094 22.210938 25.667969 C 22.007812 25.875 21.800781 26.070312 21.582031 26.257812 C 21.316406 26.492188 21.058594 26.730469 20.800781 26.976562 C 20.703125 27.066406 20.609375 27.15625 20.515625 27.246094 C 20.441406 27.3125 20.441406 27.3125 20.367188 27.382812 C 20.136719 27.601562 19.90625 27.820312 19.671875 28.039062 C 19.632812 28.078125 19.589844 28.117188 19.546875 28.15625 C 19.355469 28.339844 19.15625 28.519531 18.957031 28.699219 C 18.921875 28.730469 18.886719 28.761719 18.851562 28.792969 C 18.753906 28.863281 18.753906 28.863281 18.566406 28.886719 C 18.367188 28.800781 18.269531 28.714844 18.113281 28.566406 C 17.34375 27.84375 16.414062 27.667969 15.394531 27.6875 C 14.488281 27.730469 13.65625 28.199219 13.042969 28.855469 C 12.351562 29.691406 12.164062 30.683594 12.222656 31.742188 C 12.265625 32.007812 12.332031 32.257812 12.414062 32.511719 C 12.433594 32.566406 12.453125 32.625 12.46875 32.679688 C 12.800781 33.601562 13.519531 34.179688 14.371094 34.59375 C 15.257812 34.96875 16.214844 34.960938 17.109375 34.609375 C 17.535156 34.414062 17.910156 34.171875 18.265625 33.867188 C 18.433594 33.726562 18.433594 33.726562 18.625 33.664062 C 19.03125 33.894531 19.359375 34.265625 19.6875 34.597656 C 19.859375 34.769531 20.042969 34.929688 20.226562 35.089844 C 20.402344 35.242188 20.558594 35.40625 20.71875 35.570312 C 20.84375 35.691406 20.96875 35.804688 21.101562 35.917969 C 21.386719 36.167969 21.660156 36.421875 21.9375 36.679688 C 21.984375 36.722656 22.03125 36.769531 22.078125 36.8125 C 22.589844 37.292969 22.589844 37.292969 22.71875 37.503906 C 22.714844 37.757812 22.628906 37.882812 22.453125 38.054688 C 21.144531 39.292969 19.601562 40.136719 17.855469 40.574219 C 17.8125 40.585938 17.769531 40.597656 17.726562 40.609375 C 15.476562 41.195312 12.917969 40.652344 10.941406 39.5 C 9.980469 38.917969 9.105469 38.171875 8.382812 37.3125 C 8.332031 37.25 8.277344 37.1875 8.226562 37.125 C 6.871094 35.46875 6.320312 33.417969 6.320312 31.304688 C 6.320312 31.257812 6.320312 31.210938 6.320312 31.160156 C 6.320312 30.457031 6.359375 29.804688 6.527344 29.121094 C 6.546875 29.03125 6.5625 28.941406 6.582031 28.851562 C 6.878906 27.402344 7.578125 25.960938 8.660156 24.9375 C 8.773438 24.824219 8.875 24.707031 8.976562 24.585938 C 9.257812 24.261719 9.582031 24.003906 9.921875 23.742188 C 9.953125 23.71875 9.988281 23.691406 10.023438 23.664062 C 13.351562 21.117188 18.289062 21.027344 21.566406 23.742188 Z M 9.019531 24.945312 C 7.28125 26.910156 6.449219 29.351562 6.601562 31.960938 C 6.78125 34.414062 7.953125 36.617188 9.746094 38.28125 C 10.667969 39.066406 11.710938 39.6875 12.863281 40.0625 C 12.90625 40.078125 12.949219 40.09375 12.996094 40.105469 C 13.648438 40.320312 14.265625 40.4375 14.953125 40.445312 C 15.117188 40.449219 15.285156 40.453125 15.449219 40.457031 C 18.015625 40.511719 20.273438 39.660156 22.144531 37.886719 C 22.230469 37.804688 22.316406 37.71875 22.398438 37.632812 C 22.304688 37.398438 22.167969 37.269531 21.976562 37.105469 C 21.765625 36.921875 21.5625 36.734375 21.367188 36.535156 C 21.164062 36.328125 20.953125 36.140625 20.730469 35.949219 C 20.609375 35.84375 20.496094 35.730469 20.382812 35.617188 C 20.199219 35.429688 20.007812 35.257812 19.808594 35.085938 C 19.671875 34.964844 19.542969 34.839844 19.410156 34.714844 C 19.367188 34.671875 19.324219 34.632812 19.28125 34.589844 C 19.195312 34.507812 19.109375 34.421875 19.027344 34.339844 C 18.984375 34.300781 18.945312 34.261719 18.90625 34.222656 C 18.871094 34.1875 18.832031 34.152344 18.796875 34.117188 C 18.691406 34.035156 18.691406 34.035156 18.554688 34.0625 C 18.402344 34.125 18.304688 34.207031 18.179688 34.316406 C 17.324219 35.003906 16.300781 35.199219 15.230469 35.136719 C 14.144531 34.964844 13.257812 34.460938 12.59375 33.578125 C 11.957031 32.625 11.726562 31.515625 11.929688 30.382812 C 12.195312 29.296875 12.875 28.417969 13.824219 27.839844 C 13.886719 27.800781 13.886719 27.800781 13.949219 27.761719 C 14.71875 27.332031 15.796875 27.238281 16.652344 27.449219 C 17.378906 27.664062 18.015625 28.015625 18.558594 28.542969 C 18.753906 28.457031 18.878906 28.363281 19.023438 28.210938 C 19.21875 28.007812 19.425781 27.824219 19.640625 27.640625 C 19.855469 27.453125 20.0625 27.253906 20.269531 27.058594 C 20.359375 26.976562 20.449219 26.890625 20.539062 26.804688 C 20.582031 26.765625 20.625 26.722656 20.671875 26.679688 C 20.957031 26.414062 21.242188 26.152344 21.527344 25.886719 C 21.71875 25.710938 21.910156 25.535156 22.101562 25.359375 C 22.171875 25.296875 22.242188 25.230469 22.3125 25.164062 C 22.363281 25.117188 22.410156 25.070312 22.464844 25.023438 C 21.117188 23.351562 19.003906 22.332031 16.894531 22.078125 C 13.847656 21.878906 11.164062 22.730469 9.019531 24.945312 Z M 9.019531 24.945312 "/>
<path style=" stroke:none;fill-rule:nonzero;fill:rgb(5.882353%,23.137255%,27.058825%);fill-opacity:1;" d="M 30.351562 26.472656 C 30.398438 26.472656 30.445312 26.46875 30.492188 26.46875 C 30.644531 26.46875 30.800781 26.46875 30.953125 26.46875 C 31.058594 26.46875 31.164062 26.46875 31.269531 26.46875 C 31.496094 26.46875 31.71875 26.46875 31.941406 26.472656 C 32.226562 26.472656 32.511719 26.472656 32.796875 26.46875 C 33.015625 26.46875 33.238281 26.46875 33.457031 26.46875 C 33.5625 26.46875 33.667969 26.46875 33.773438 26.46875 C 33.921875 26.46875 34.066406 26.46875 34.214844 26.472656 C 34.339844 26.472656 34.339844 26.472656 34.46875 26.472656 C 34.707031 26.5 34.820312 26.542969 35.007812 26.6875 C 35.046875 26.835938 35.046875 26.835938 35.046875 27.015625 C 35.046875 27.082031 35.050781 27.148438 35.050781 27.21875 C 35.050781 27.292969 35.046875 27.367188 35.046875 27.441406 C 35.046875 27.519531 35.046875 27.597656 35.046875 27.679688 C 35.046875 27.847656 35.046875 28.015625 35.046875 28.1875 C 35.046875 28.453125 35.046875 28.722656 35.046875 28.992188 C 35.050781 29.464844 35.050781 29.9375 35.046875 30.410156 C 35.046875 31.121094 35.046875 31.832031 35.050781 32.542969 C 35.050781 32.808594 35.050781 33.074219 35.050781 33.339844 C 35.046875 33.546875 35.050781 33.75 35.050781 33.957031 C 35.046875 34.03125 35.046875 34.101562 35.046875 34.179688 C 35.050781 34.585938 35.082031 34.894531 35.265625 35.265625 C 35.53125 35.476562 35.761719 35.472656 36.085938 35.445312 C 36.304688 35.363281 36.359375 35.273438 36.480469 35.070312 C 36.519531 34.808594 36.515625 34.546875 36.511719 34.28125 C 36.511719 34.160156 36.511719 34.160156 36.515625 34.039062 C 36.515625 33.863281 36.515625 33.691406 36.515625 33.515625 C 36.515625 33.242188 36.515625 32.964844 36.515625 32.691406 C 36.519531 32.257812 36.519531 31.820312 36.519531 31.386719 C 36.519531 30.605469 36.523438 29.828125 36.523438 29.046875 C 36.527344 28.773438 36.527344 28.5 36.527344 28.226562 C 36.527344 28.019531 36.527344 27.808594 36.527344 27.597656 C 36.527344 27.523438 36.527344 27.445312 36.527344 27.367188 C 36.527344 27.300781 36.527344 27.230469 36.527344 27.15625 C 36.527344 27.066406 36.527344 27.066406 36.527344 26.976562 C 36.546875 26.804688 36.574219 26.703125 36.671875 26.558594 C 36.898438 26.484375 37.082031 26.488281 37.324219 26.488281 C 37.390625 26.488281 37.390625 26.488281 37.464844 26.484375 C 37.617188 26.484375 37.769531 26.484375 37.921875 26.484375 C 38.03125 26.484375 38.136719 26.484375 38.242188 26.484375 C 38.46875 26.484375 38.691406 26.484375 38.914062 26.484375 C 39.203125 26.484375 39.488281 26.484375 39.777344 26.480469 C 39.996094 26.480469 40.214844 26.480469 40.4375 26.480469 C 40.542969 26.480469 40.648438 26.480469 40.753906 26.480469 C 40.902344 26.480469 41.050781 26.480469 41.199219 26.480469 C 41.28125 26.480469 41.367188 26.480469 41.453125 26.480469 C 41.648438 26.496094 41.761719 26.507812 41.921875 26.625 C 41.984375 26.816406 41.992188 26.945312 41.992188 27.144531 C 41.992188 27.246094 41.992188 27.246094 41.992188 27.351562 C 41.992188 27.425781 41.992188 27.5 41.992188 27.578125 C 41.992188 27.65625 41.992188 27.734375 41.992188 27.816406 C 41.996094 28.03125 41.996094 28.246094 41.996094 28.460938 C 41.996094 28.597656 41.996094 28.734375 41.996094 28.867188 C 41.996094 29.34375 41.996094 29.816406 41.996094 30.292969 C 41.996094 30.730469 41.996094 31.167969 41.996094 31.609375 C 42 31.988281 42 32.367188 42 32.746094 C 42 32.96875 42 33.195312 42 33.421875 C 42.003906 35.367188 42.007812 37.203125 40.5625 38.675781 C 39.738281 39.464844 38.667969 39.882812 37.566406 40.128906 C 37.460938 40.152344 37.460938 40.152344 37.355469 40.175781 C 35.429688 40.519531 33.195312 40.222656 31.554688 39.101562 C 31.398438 38.980469 31.25 38.855469 31.105469 38.71875 C 31.058594 38.683594 31.015625 38.644531 30.96875 38.605469 C 30.09375 37.8125 29.6875 36.523438 29.621094 35.371094 C 29.613281 35.144531 29.613281 34.914062 29.613281 34.683594 C 29.613281 34.597656 29.613281 34.507812 29.613281 34.421875 C 29.609375 34.1875 29.609375 33.949219 29.609375 33.714844 C 29.609375 33.570312 29.609375 33.421875 29.609375 33.273438 C 29.609375 32.761719 29.609375 32.25 29.609375 31.734375 C 29.609375 31.257812 29.605469 30.78125 29.605469 30.300781 C 29.601562 29.890625 29.601562 29.480469 29.601562 29.066406 C 29.601562 28.824219 29.601562 28.578125 29.601562 28.332031 C 29.601562 28.101562 29.601562 27.871094 29.601562 27.640625 C 29.601562 27.515625 29.601562 27.394531 29.597656 27.269531 C 29.597656 27.15625 29.597656 27.15625 29.601562 27.042969 C 29.601562 26.980469 29.601562 26.914062 29.601562 26.847656 C 29.632812 26.6875 29.632812 26.6875 29.75 26.570312 C 29.953125 26.460938 30.121094 26.472656 30.351562 26.472656 Z M 29.953125 26.878906 C 29.945312 28.4375 29.945312 28.4375 29.941406 30 C 29.941406 30.636719 29.941406 31.269531 29.9375 31.90625 C 29.9375 32.371094 29.933594 32.835938 29.933594 33.296875 C 29.933594 33.542969 29.933594 33.789062 29.933594 34.035156 C 29.929688 34.265625 29.929688 34.496094 29.929688 34.726562 C 29.929688 34.851562 29.929688 34.976562 29.929688 35.101562 C 29.933594 36.316406 30.300781 37.5 31.140625 38.40625 C 32.335938 39.539062 33.960938 39.960938 35.566406 39.953125 C 35.707031 39.953125 35.847656 39.953125 35.992188 39.953125 C 37.550781 39.957031 39.167969 39.582031 40.324219 38.46875 C 41.152344 37.640625 41.625 36.652344 41.632812 35.46875 C 41.632812 35.382812 41.628906 35.300781 41.628906 35.214844 C 41.628906 35.121094 41.628906 35.03125 41.628906 34.9375 C 41.628906 34.691406 41.628906 34.449219 41.625 34.203125 C 41.625 33.945312 41.625 33.6875 41.625 33.429688 C 41.625 32.941406 41.621094 32.453125 41.617188 31.96875 C 41.613281 31.308594 41.613281 30.648438 41.613281 29.988281 C 41.609375 28.953125 41.605469 27.917969 41.601562 26.878906 C 40.039062 26.878906 38.472656 26.878906 36.863281 26.878906 C 36.863281 27.460938 36.859375 28.042969 36.859375 28.640625 C 36.855469 29.007812 36.855469 29.375 36.855469 29.746094 C 36.851562 30.328125 36.847656 30.914062 36.847656 31.496094 C 36.847656 31.921875 36.84375 32.347656 36.839844 32.773438 C 36.839844 33 36.839844 33.222656 36.839844 33.449219 C 36.839844 33.699219 36.835938 33.953125 36.835938 34.203125 C 36.835938 34.316406 36.835938 34.316406 36.835938 34.429688 C 36.832031 34.863281 36.78125 35.152344 36.542969 35.519531 C 36.214844 35.726562 35.898438 35.761719 35.519531 35.710938 C 35.300781 35.652344 35.125 35.570312 34.957031 35.410156 C 34.722656 34.957031 34.734375 34.472656 34.730469 33.972656 C 34.730469 33.894531 34.730469 33.816406 34.730469 33.738281 C 34.726562 33.527344 34.726562 33.320312 34.726562 33.109375 C 34.726562 32.890625 34.722656 32.671875 34.722656 32.453125 C 34.71875 32.039062 34.714844 31.625 34.714844 31.210938 C 34.710938 30.691406 34.707031 30.171875 34.703125 29.652344 C 34.699219 28.730469 34.691406 27.804688 34.6875 26.878906 C 33.125 26.878906 31.5625 26.878906 29.953125 26.878906 Z M 29.953125 26.878906 "/>
<path style=" stroke:none;fill-rule:nonzero;fill:rgb(3.529412%,20.784314%,25.098041%);fill-opacity:1;" d="M 53.828125 27.449219 C 55.074219 28.453125 55.867188 29.726562 56.425781 31.210938 C 56.445312 31.273438 56.46875 31.332031 56.492188 31.394531 C 56.523438 31.476562 56.523438 31.476562 56.554688 31.566406 C 56.582031 31.640625 56.582031 31.640625 56.609375 31.714844 C 56.648438 31.910156 56.617188 32.0625 56.574219 32.257812 C 56.210938 32.386719 55.847656 32.519531 55.484375 32.648438 C 55.425781 32.667969 55.367188 32.6875 55.308594 32.710938 C 54.492188 33.003906 53.675781 33.289062 52.859375 33.574219 C 52.816406 33.589844 52.769531 33.605469 52.726562 33.621094 C 52.285156 33.777344 51.839844 33.929688 51.398438 34.082031 C 50.429688 34.417969 49.46875 34.761719 48.511719 35.136719 C 48.601562 35.1875 48.691406 35.242188 48.78125 35.292969 C 48.855469 35.335938 48.855469 35.335938 48.929688 35.378906 C 49.480469 35.644531 50.058594 35.53125 50.613281 35.34375 C 51.148438 35.128906 51.613281 34.78125 51.859375 34.253906 C 51.882812 34.183594 51.882812 34.183594 51.902344 34.113281 C 51.925781 34.070312 51.945312 34.027344 51.96875 33.984375 C 52.429688 33.832031 52.828125 34.039062 53.265625 34.203125 C 53.347656 34.234375 53.429688 34.261719 53.511719 34.292969 C 53.683594 34.355469 53.855469 34.417969 54.023438 34.480469 C 54.246094 34.5625 54.464844 34.644531 54.683594 34.722656 C 54.894531 34.800781 55.101562 34.878906 55.3125 34.957031 C 55.390625 34.984375 55.46875 35.011719 55.550781 35.042969 C 55.625 35.070312 55.699219 35.097656 55.773438 35.125 C 55.867188 35.160156 55.867188 35.160156 55.96875 35.195312 C 56.128906 35.265625 56.128906 35.265625 56.320312 35.390625 C 56.300781 36.488281 55.257812 37.582031 54.507812 38.316406 C 54.21875 38.59375 53.914062 38.828125 53.566406 39.039062 C 53.5 39.082031 53.4375 39.125 53.367188 39.167969 C 51.699219 40.195312 49.5625 40.53125 47.660156 40.082031 C 45.808594 39.601562 44.359375 38.4375 43.359375 36.820312 C 42.441406 35.257812 42.105469 33.242188 42.492188 31.476562 C 42.988281 29.65625 44.125 28.144531 45.761719 27.199219 C 46.390625 26.84375 47.042969 26.554688 47.742188 26.367188 C 47.789062 26.355469 47.835938 26.34375 47.886719 26.328125 C 49.957031 25.796875 52.125 26.121094 53.828125 27.449219 Z M 44.542969 28.480469 C 44.496094 28.519531 44.449219 28.5625 44.402344 28.605469 C 43.429688 29.5 42.753906 30.917969 42.671875 32.230469 C 42.636719 33.207031 42.597656 34.207031 42.945312 35.136719 C 42.964844 35.1875 42.984375 35.242188 43.003906 35.296875 C 43.425781 36.402344 43.972656 37.296875 44.800781 38.144531 C 44.835938 38.183594 44.871094 38.226562 44.910156 38.269531 C 45.789062 39.234375 47.230469 39.839844 48.511719 39.9375 C 48.796875 39.945312 49.078125 39.949219 49.363281 39.949219 C 49.4375 39.949219 49.511719 39.949219 49.585938 39.949219 C 50.070312 39.953125 50.535156 39.917969 51.007812 39.808594 C 51.027344 39.785156 51.050781 39.765625 51.070312 39.742188 C 51.148438 39.730469 51.226562 39.714844 51.304688 39.699219 C 52.402344 39.460938 53.484375 38.875 54.273438 38.078125 C 54.328125 38.027344 54.382812 37.972656 54.441406 37.921875 C 54.488281 37.867188 54.539062 37.8125 54.59375 37.761719 C 54.648438 37.703125 54.648438 37.703125 54.703125 37.648438 C 55.132812 37.191406 56 36.1875 56 35.519531 C 55.542969 35.359375 55.089844 35.195312 54.632812 35.035156 C 54.480469 34.980469 54.324219 34.925781 54.167969 34.871094 C 53.945312 34.789062 53.722656 34.710938 53.5 34.632812 C 53.429688 34.609375 53.363281 34.582031 53.292969 34.558594 C 52.9375 34.433594 52.589844 34.324219 52.222656 34.238281 C 52.195312 34.28125 52.167969 34.324219 52.136719 34.367188 C 51.675781 35.042969 51.164062 35.53125 50.351562 35.746094 C 49.648438 35.867188 48.949219 35.816406 48.355469 35.398438 C 48.167969 35.25 48.039062 35.101562 47.9375 34.878906 C 48.011719 34.863281 48.089844 34.847656 48.171875 34.832031 C 48.582031 34.742188 48.972656 34.605469 49.371094 34.472656 C 49.484375 34.433594 49.484375 34.433594 49.597656 34.398438 C 49.917969 34.289062 50.234375 34.179688 50.546875 34.050781 C 50.957031 33.882812 51.375 33.75 51.796875 33.613281 C 52.050781 33.527344 52.304688 33.445312 52.5625 33.359375 C 52.613281 33.34375 52.664062 33.324219 52.71875 33.308594 C 53.90625 32.914062 55.089844 32.519531 56.257812 32.0625 C 56.125 30.832031 55.421875 29.507812 54.59375 28.609375 C 54.535156 28.546875 54.480469 28.484375 54.421875 28.421875 C 53.746094 27.695312 52.949219 27.195312 52.03125 26.816406 C 51.988281 26.796875 51.945312 26.777344 51.902344 26.757812 C 49.488281 25.722656 46.371094 26.792969 44.542969 28.480469 Z M 44.542969 28.480469 "/>
<path style=" stroke:none;fill-rule:nonzero;fill:rgb(2.745098%,20.392157%,24.313726%);fill-opacity:1;" d="M 28.671875 20.863281 C 28.808594 20.96875 28.859375 21.023438 28.886719 21.195312 C 28.886719 21.25 28.886719 21.304688 28.886719 21.363281 C 28.890625 21.425781 28.890625 21.488281 28.890625 21.554688 C 28.890625 21.625 28.890625 21.691406 28.890625 21.765625 C 28.890625 21.839844 28.890625 21.914062 28.890625 21.988281 C 28.890625 22.195312 28.890625 22.398438 28.890625 22.605469 C 28.890625 22.828125 28.890625 23.050781 28.890625 23.269531 C 28.890625 23.703125 28.890625 24.140625 28.890625 24.574219 C 28.890625 24.925781 28.890625 25.277344 28.890625 25.632812 C 28.890625 25.683594 28.890625 25.730469 28.890625 25.785156 C 28.890625 25.886719 28.890625 25.988281 28.894531 26.089844 C 28.894531 27.046875 28.894531 28.003906 28.890625 28.957031 C 28.890625 29.832031 28.894531 30.707031 28.894531 31.585938 C 28.894531 32.484375 28.894531 33.378906 28.894531 34.277344 C 28.894531 34.785156 28.894531 35.289062 28.898438 35.792969 C 28.898438 36.222656 28.898438 36.652344 28.898438 37.082031 C 28.894531 37.300781 28.894531 37.519531 28.898438 37.738281 C 28.898438 37.976562 28.898438 38.214844 28.894531 38.449219 C 28.898438 38.554688 28.898438 38.554688 28.898438 38.660156 C 28.894531 39.128906 28.894531 39.128906 28.742188 39.335938 C 28.605469 39.425781 28.484375 39.488281 28.328125 39.542969 C 28.273438 39.5625 28.21875 39.582031 28.160156 39.601562 C 28.101562 39.621094 28.042969 39.640625 27.980469 39.664062 C 27.917969 39.683594 27.855469 39.707031 27.792969 39.730469 C 27.585938 39.800781 27.382812 39.871094 27.179688 39.941406 C 27.039062 39.988281 26.902344 40.039062 26.761719 40.085938 C 26.550781 40.160156 26.339844 40.230469 26.132812 40.304688 C 25.722656 40.445312 25.3125 40.589844 24.90625 40.738281 C 24.8125 40.773438 24.722656 40.804688 24.628906 40.839844 C 24.503906 40.886719 24.378906 40.929688 24.253906 40.976562 C 24.140625 41.019531 24.027344 41.058594 23.914062 41.101562 C 23.855469 41.121094 23.792969 41.144531 23.730469 41.167969 C 23.53125 41.222656 23.371094 41.234375 23.167969 41.214844 C 23.007812 41.054688 23.023438 41.007812 23.023438 40.789062 C 23.023438 40.722656 23.023438 40.660156 23.023438 40.59375 C 23.023438 40.523438 23.023438 40.453125 23.023438 40.382812 C 23.023438 40.308594 23.023438 40.234375 23.019531 40.15625 C 23.019531 39.949219 23.019531 39.742188 23.019531 39.535156 C 23.019531 39.3125 23.019531 39.085938 23.019531 38.863281 C 23.015625 38.375 23.015625 37.886719 23.015625 37.398438 C 23.015625 37.09375 23.015625 36.789062 23.015625 36.484375 C 23.015625 35.640625 23.011719 34.796875 23.011719 33.953125 C 23.011719 33.898438 23.011719 33.84375 23.011719 33.789062 C 23.011719 33.679688 23.011719 33.570312 23.011719 33.460938 C 23.011719 33.40625 23.011719 33.351562 23.011719 33.296875 C 23.011719 33.242188 23.011719 33.1875 23.011719 33.132812 C 23.011719 32.25 23.011719 31.367188 23.007812 30.484375 C 23.007812 29.578125 23.003906 28.671875 23.003906 27.769531 C 23.003906 27.257812 23.003906 26.75 23.003906 26.242188 C 23 25.808594 23 25.375 23 24.945312 C 23 24.722656 23 24.5 23 24.28125 C 23 24.042969 23 23.800781 23 23.5625 C 23 23.492188 23 23.421875 23 23.347656 C 23 23.175781 23.003906 23.015625 23.039062 22.847656 C 23.191406 22.710938 23.191406 22.710938 23.359375 22.65625 C 23.414062 22.632812 23.46875 22.609375 23.523438 22.585938 C 23.582031 22.566406 23.636719 22.546875 23.695312 22.523438 C 23.761719 22.5 23.828125 22.476562 23.898438 22.453125 C 23.96875 22.425781 24.039062 22.402344 24.113281 22.375 C 24.1875 22.347656 24.261719 22.320312 24.335938 22.292969 C 24.535156 22.222656 24.734375 22.152344 24.933594 22.078125 C 25.207031 21.980469 25.480469 21.882812 25.753906 21.78125 C 25.90625 21.726562 26.058594 21.671875 26.214844 21.617188 C 26.574219 21.488281 26.933594 21.355469 27.292969 21.21875 C 27.359375 21.195312 27.421875 21.171875 27.488281 21.148438 C 27.609375 21.101562 27.726562 21.058594 27.847656 21.011719 C 28.371094 20.816406 28.371094 20.816406 28.671875 20.863281 Z M 28.15625 21.261719 C 28.101562 21.277344 28.050781 21.292969 27.996094 21.3125 C 27.941406 21.328125 27.886719 21.347656 27.832031 21.363281 C 27.753906 21.390625 27.753906 21.390625 27.671875 21.414062 C 27.339844 21.519531 27.015625 21.636719 26.6875 21.761719 C 26.328125 21.886719 25.96875 22.011719 25.601562 22.144531 C 24.460938 22.554688 24.460938 22.554688 23.296875 22.976562 C 23.296875 28.890625 23.296875 34.804688 23.296875 40.894531 C 23.886719 40.734375 23.886719 40.734375 24.464844 40.542969 C 24.546875 40.515625 24.632812 40.484375 24.71875 40.453125 C 24.761719 40.4375 24.804688 40.421875 24.851562 40.40625 C 25.816406 40.058594 26.789062 39.726562 27.765625 39.40625 C 27.8125 39.390625 27.859375 39.375 27.910156 39.359375 C 28 39.332031 28.085938 39.300781 28.175781 39.273438 C 28.375 39.21875 28.375 39.21875 28.542969 39.105469 C 28.550781 39.007812 28.550781 38.914062 28.550781 38.816406 C 28.550781 38.753906 28.550781 38.691406 28.550781 38.625 C 28.550781 38.558594 28.550781 38.488281 28.550781 38.414062 C 28.550781 38.34375 28.550781 38.269531 28.550781 38.195312 C 28.550781 37.988281 28.550781 37.785156 28.550781 37.582031 C 28.550781 37.363281 28.550781 37.140625 28.550781 36.921875 C 28.550781 36.539062 28.550781 36.160156 28.550781 35.777344 C 28.550781 35.226562 28.550781 34.675781 28.550781 34.125 C 28.550781 33.230469 28.550781 32.335938 28.546875 31.441406 C 28.546875 30.574219 28.546875 29.707031 28.546875 28.835938 C 28.546875 28.757812 28.546875 28.757812 28.546875 28.675781 C 28.546875 28.40625 28.546875 28.136719 28.546875 27.871094 C 28.546875 25.640625 28.546875 23.414062 28.542969 21.183594 C 28.398438 21.183594 28.292969 21.21875 28.15625 21.261719 Z M 28.15625 21.261719 "/>
<path style=" stroke:none;fill-rule:nonzero;fill:rgb(2.745098%,20.392157%,24.705882%);fill-opacity:1;" d="M 50.71875 30.644531 C 50.839844 30.75 50.957031 30.859375 51.070312 30.976562 C 50.984375 31.15625 50.890625 31.15625 50.707031 31.222656 C 50.640625 31.242188 50.578125 31.265625 50.507812 31.289062 C 50.4375 31.3125 50.367188 31.335938 50.296875 31.363281 C 50.222656 31.386719 50.152344 31.410156 50.078125 31.4375 C 49.921875 31.488281 49.769531 31.542969 49.617188 31.59375 C 49.382812 31.675781 49.148438 31.753906 48.917969 31.835938 C 48.765625 31.886719 48.617188 31.9375 48.46875 31.988281 C 48.398438 32.011719 48.328125 32.039062 48.257812 32.0625 C 47.855469 32.199219 47.449219 32.328125 47.039062 32.449219 C 47 31.964844 47.082031 31.632812 47.359375 31.230469 C 48.171875 30.316406 49.660156 29.863281 50.71875 30.644531 Z M 47.808594 31.167969 C 47.589844 31.425781 47.4375 31.667969 47.359375 32 C 47.414062 31.980469 47.464844 31.964844 47.519531 31.945312 C 49.359375 31.324219 49.359375 31.324219 50.179688 31.09375 C 50.308594 31.058594 50.433594 31.019531 50.558594 30.976562 C 50.558594 30.933594 50.558594 30.890625 50.558594 30.847656 C 49.664062 30.464844 48.574219 30.503906 47.808594 31.167969 Z M 47.808594 31.167969 "/>
</g>
</svg>
